<svg width="329" height="89" viewBox="0 0 329 89" fill="none" xmlns="http://www.w3.org/2000/svg">
<path d="M93.9476 83V45.76H109.376C112.408 45.76 114.793 46.2831 116.531 47.3294C118.269 48.3757 119.501 49.7323 120.228 51.3992C120.973 53.0661 121.346 54.8217 121.346 56.666C121.346 58.1024 121.062 59.5388 120.494 60.9752C119.927 62.4116 119.031 63.6795 117.808 64.779C116.602 65.8785 115.033 66.6676 113.1 67.1464L120.867 83H114.802L107.354 67.6518H99.3208V83H93.9476ZM99.3208 62.6244H109.482C111.078 62.6244 112.337 62.3407 113.259 61.7732C114.199 61.188 114.864 60.4521 115.254 59.5654C115.662 58.661 115.866 57.7211 115.866 56.7458C115.866 55.8591 115.68 54.9636 115.307 54.0592C114.935 53.1371 114.288 52.3657 113.366 51.745C112.443 51.1066 111.149 50.7874 109.482 50.7874H99.3208V62.6244ZM138.397 83.6384C135.861 83.6384 133.671 83.0355 131.826 81.8296C130 80.6237 128.59 78.9479 127.597 76.8022C126.622 74.6565 126.134 72.1827 126.134 69.3808C126.134 66.4016 126.639 63.8569 127.65 61.7466C128.679 59.6186 130.106 57.996 131.933 56.8788C133.777 55.7439 135.932 55.1764 138.397 55.1764C140.489 55.1764 142.395 55.6375 144.116 56.5596C145.853 57.464 147.237 58.8738 148.265 60.789C149.311 62.6865 149.835 65.1248 149.835 68.104C149.835 68.5296 149.817 69.0439 149.781 69.6468C149.764 70.232 149.719 70.8349 149.648 71.4556H131.481C131.622 72.9629 131.986 74.2929 132.571 75.4456C133.174 76.5805 133.972 77.4672 134.965 78.1056C135.958 78.744 137.129 79.0632 138.476 79.0632C139.665 79.0632 140.746 78.8593 141.722 78.4514C142.697 78.0258 143.61 77.3697 144.461 76.483L147.547 79.808C146.483 80.9252 145.18 81.8473 143.637 82.5744C142.094 83.2837 140.347 83.6384 138.397 83.6384ZM131.454 67.04H144.568C144.532 65.6036 144.266 64.3445 143.77 63.2628C143.291 62.1633 142.591 61.3033 141.668 60.6826C140.764 60.0619 139.656 59.7516 138.343 59.7516C136.517 59.7516 134.947 60.3368 133.635 61.5072C132.323 62.6776 131.596 64.5219 131.454 67.04ZM157.082 83V55.8148H162.376V58.528C163.227 57.3931 164.238 56.5507 165.408 56.001C166.596 55.4513 167.953 55.1764 169.478 55.1764C172.688 55.1764 175.099 56.1517 176.713 58.1024C178.327 60.0531 179.134 62.9968 179.134 66.9336V83H173.84V67.0666C173.84 64.779 173.37 63.05 172.43 61.8796C171.491 60.7092 170.125 60.124 168.334 60.124C166.348 60.124 164.858 60.6915 163.865 61.8264C162.872 62.9613 162.376 64.6726 162.376 66.9602V83H157.082ZM194.408 83.6384C192.458 83.6384 190.968 83.0709 189.94 81.936C188.929 80.7833 188.423 79.1164 188.423 76.9352V60.4432H184.167V55.8148H188.423V47.1432L193.717 44.5896V55.8148H200.234V60.4432H193.717V75.5254C193.717 76.6603 193.921 77.4938 194.329 78.0258C194.754 78.5578 195.41 78.8238 196.297 78.8238C197.574 78.8238 198.957 78.3716 200.447 77.4672L199.835 82.4148C199.019 82.8404 198.168 83.1507 197.281 83.3458C196.394 83.5409 195.437 83.6384 194.408 83.6384ZM207.725 83V45.76H230.867V50.8406H213.098V61.2146H224.403V66.2952H213.098V77.8662H232.011V83H207.725ZM247.095 83.6384C244.134 83.6384 241.802 82.8315 240.099 81.2178C238.415 79.5863 237.572 77.3697 237.572 74.5678C237.572 72.759 237.998 71.1807 238.849 69.833C239.7 68.4853 240.897 67.4479 242.44 66.7208C244.001 65.976 245.827 65.6036 247.92 65.6036C249.196 65.6036 250.402 65.7366 251.537 66.0026C252.69 66.2686 253.745 66.6676 254.703 67.1996V65.3642C254.703 63.449 254.242 62.0392 253.319 61.1348C252.397 60.2127 250.987 59.7516 249.09 59.7516C247.778 59.7516 246.421 59.991 245.02 60.4698C243.637 60.9486 242.298 61.6225 241.004 62.4914L239.461 58.1556C240.897 57.2157 242.511 56.4887 244.302 55.9744C246.111 55.4424 247.911 55.1764 249.702 55.1764C253.071 55.1764 255.589 56.0099 257.256 57.6768C258.941 59.3437 259.783 61.8353 259.783 65.1514V83H254.703V80.606C253.692 81.5813 252.53 82.335 251.218 82.867C249.906 83.3813 248.531 83.6384 247.095 83.6384ZM248.053 79.0632C249.258 79.0632 250.438 78.7883 251.59 78.2386C252.761 77.6711 253.798 76.882 254.703 75.8712V71.6684C253.851 71.1719 252.885 70.7817 251.803 70.498C250.721 70.2143 249.684 70.0724 248.691 70.0724C246.811 70.0724 245.331 70.4803 244.249 71.296C243.167 72.094 242.626 73.1935 242.626 74.5944C242.626 75.9776 243.105 77.0682 244.063 77.8662C245.02 78.6642 246.35 79.0632 248.053 79.0632ZM275.99 83.6384C274.004 83.6384 272.097 83.2128 270.271 82.3616C268.462 81.5104 266.99 80.3666 265.855 78.9302L269.526 75.818C270.466 76.8288 271.521 77.6179 272.691 78.1854C273.862 78.7351 275.005 79.01 276.123 79.01C277.648 79.01 278.827 78.7351 279.66 78.1854C280.494 77.6179 280.911 76.8377 280.911 75.8446C280.911 75.2062 280.716 74.6299 280.325 74.1156C279.953 73.5836 279.315 73.0782 278.41 72.5994C277.506 72.1029 276.282 71.5709 274.739 71.0034C271.725 69.8862 269.57 68.6803 268.276 67.3858C266.981 66.0735 266.334 64.4332 266.334 62.4648C266.334 60.3013 267.203 58.5457 268.941 57.198C270.679 55.8503 272.931 55.1764 275.697 55.1764C277.612 55.1764 279.368 55.5399 280.964 56.267C282.56 56.9763 283.934 58.0137 285.087 59.3792L281.496 62.3318C279.882 60.6471 277.931 59.8048 275.644 59.8048C274.349 59.8048 273.321 60.0531 272.558 60.5496C271.796 61.0284 271.414 61.6934 271.414 62.5446C271.414 63.3781 271.849 64.1051 272.718 64.7258C273.587 65.3465 275.174 66.0735 277.479 66.907C279.465 67.5986 281.079 68.3611 282.32 69.1946C283.58 70.0281 284.493 70.9857 285.06 72.0674C285.645 73.1314 285.938 74.3639 285.938 75.7648C285.938 78.212 285.051 80.1361 283.278 81.537C281.522 82.9379 279.093 83.6384 275.99 83.6384ZM303.244 83.6384C300.708 83.6384 298.518 83.0355 296.674 81.8296C294.847 80.6237 293.437 78.9479 292.444 76.8022C291.469 74.6565 290.981 72.1827 290.981 69.3808C290.981 66.4016 291.487 63.8569 292.497 61.7466C293.526 59.6186 294.954 57.996 296.78 56.8788C298.624 55.7439 300.779 55.1764 303.244 55.1764C305.336 55.1764 307.243 55.6375 308.963 56.5596C310.701 57.464 312.084 58.8738 313.112 60.789C314.159 62.6865 314.682 65.1248 314.682 68.104C314.682 68.5296 314.664 69.0439 314.629 69.6468C314.611 70.232 314.567 70.8349 314.496 71.4556H296.328C296.47 72.9629 296.833 74.2929 297.418 75.4456C298.021 76.5805 298.819 77.4672 299.812 78.1056C300.806 78.744 301.976 79.0632 303.324 79.0632C304.512 79.0632 305.594 78.8593 306.569 78.4514C307.544 78.0258 308.457 77.3697 309.309 76.483L312.394 79.808C311.33 80.9252 310.027 81.8473 308.484 82.5744C306.941 83.2837 305.195 83.6384 303.244 83.6384ZM296.301 67.04H309.415C309.38 65.6036 309.114 64.3445 308.617 63.2628C308.138 62.1633 307.438 61.3033 306.516 60.6826C305.611 60.0619 304.503 59.7516 303.191 59.7516C301.364 59.7516 299.795 60.3368 298.482 61.5072C297.17 62.6776 296.443 64.5219 296.301 67.04Z" fill="#6081AB"/>
<path d="M31.6119 77H6V24.5L39 6" stroke="#6081AB" stroke-width="11" stroke-linecap="round"/>
<path d="M45.3881 77H71V24.5L38 6" stroke="#6081AB" stroke-width="11" stroke-linecap="round"/>
</svg>
